<svg width="573.080029296875px" height="70.43999023437499px" xmlns="http://www.w3.org/2000/svg" viewBox="-36.54001464843748 39.780004882812506 573.080029296875 70.43999023437499" style="background:#051103" preserveAspectRatio="xMidYMid"><defs><linearGradient id="editing-glowing-gradient" x1="0.8280295144952539" x2="0.17197048550474614" y1="0.8773547901113858" y2="0.12264520988861416"><stop offset="0" stop-color="#67ff43"></stop><stop offset="1" stop-color="#90ffff"></stop></linearGradient><filter id="editing-glowing" x="-100%" y="-100%" width="300%" height="300%"><feGaussianBlur in="SourceGraphic" result="blur" stdDeviation="20"></feGaussianBlur><feMerge><feMergeNode in="blur"></feMergeNode><feMergeNode in="SourceGraphic"></feMergeNode></feMerge></filter></defs><g filter="url(#editing-glowing)"><g transform="translate(47.5285227894783, 87.9749984741211)"><path d="M11.70-2.25L11.70-2.25L11.70-2.25Q11.70-4.35 12.54-8.55L12.54-8.55L8.10-8.55L6.45 0L0.18 0L3.99-19.80L10.32-19.80L8.58-10.95L13.02-10.95L14.67-19.80L21-19.80L21-19.80Q20.58-17.58 20.04-15.09L20.04-15.09L19.02-10.20L19.02-10.20Q17.88-4.50 17.88-2.01L17.88-2.01L17.88-2.01Q17.88-0.99 18.21-0.42L18.21-0.42L18.21-0.42Q16.71 0.60 14.96 0.60L14.96 0.60L14.96 0.60Q13.20 0.60 12.45-0.24L12.45-0.24L12.45-0.24Q11.70-1.08 11.70-2.25ZM33.87-5.07L33.87-5.07L33.87-5.07Q34.62-4.56 34.62-3.44L34.62-3.44L34.62-3.44Q34.62-2.31 34.05-1.59L34.05-1.59L34.05-1.59Q33.48-0.87 32.55-0.39L32.55-0.39L32.55-0.39Q30.63 0.60 28.56 0.60L28.56 0.60L28.56 0.60Q26.49 0.60 25.27 0.15L25.27 0.15L25.27 0.15Q24.06-0.30 23.25-1.14L23.25-1.14L23.25-1.14Q21.66-2.73 21.66-5.64L21.66-5.64L21.66-5.64Q21.66-10.17 24.12-12.93L24.12-12.93L24.12-12.93Q26.76-15.90 31.35-15.90L31.35-15.90L31.35-15.90Q34.20-15.90 35.61-14.70L35.61-14.70L35.61-14.70Q36.66-13.80 36.66-12.33L36.66-12.33L36.66-12.33Q36.66-7.05 27.54-7.05L27.54-7.05L27.54-7.05Q27.42-6.27 27.42-5.61L27.42-5.61L27.42-5.61Q27.42-4.23 28.04-3.71L28.04-3.71L28.04-3.71Q28.65-3.18 29.79-3.18L29.79-3.18L29.79-3.18Q30.93-3.18 32.14-3.71L32.14-3.71L32.14-3.71Q33.36-4.23 33.87-5.07ZM27.75-8.34L27.75-8.34L27.75-8.34Q29.88-8.34 31.11-9.66L31.11-9.66L31.11-9.66Q32.34-10.92 32.34-12.93L32.34-12.93L32.34-12.93Q32.34-13.62 32.09-13.99L32.09-13.99L32.09-13.99Q31.83-14.37 31.32-14.37L31.32-14.37L31.32-14.37Q30.81-14.37 30.38-14.17L30.38-14.17L30.38-14.17Q29.94-13.98 29.49-13.32L29.49-13.32L29.49-13.32Q28.38-11.82 27.75-8.34ZM44.85-1.65L44.85-1.65L44.85-1.65Q43.92 0.60 40.95 0.60L40.95 0.60L40.95 0.60Q39.45 0.60 38.49-0.45L38.49-0.45L38.49-0.45Q37.71-1.32 37.71-2.31L37.71-2.31L37.71-2.31Q37.71-4.56 38.76-9.48L38.76-9.48L40.95-21L47.04-21.60L44.13-6.42L44.13-6.42Q43.62-4.20 43.62-3.42L43.62-3.42L43.62-3.42Q43.62-1.71 44.85-1.65ZM54.57-1.65L54.57-1.65L54.57-1.65Q53.64 0.60 50.67 0.60L50.67 0.60L50.67 0.60Q49.17 0.60 48.21-0.45L48.21-0.45L48.21-0.45Q47.43-1.32 47.43-2.31L47.43-2.31L47.43-2.31Q47.43-4.56 48.48-9.48L48.48-9.48L50.67-21L56.76-21.60L53.85-6.42L53.85-6.42Q53.34-4.20 53.34-3.42L53.34-3.42L53.34-3.42Q53.34-1.71 54.57-1.65ZM63.66 0.60L63.66 0.60L63.66 0.60Q57.06 0.60 57.06-5.61L57.06-5.61L57.06-5.61Q57.06-10.02 59.49-12.87L59.49-12.87L59.49-12.87Q62.07-15.90 66.54-15.90L66.54-15.90L66.54-15.90Q69.78-15.90 71.43-14.40L71.43-14.40L71.43-14.40Q73.08-12.90 73.08-9.75L73.08-9.75L73.08-9.75Q73.08-4.95 70.50-2.16L70.50-2.16L70.50-2.16Q67.98 0.60 63.66 0.60ZM64.44-12.45L64.44-12.45L64.44-12.45Q64.08-11.64 63.80-10.42L63.80-10.42L63.80-10.42Q63.51-9.21 63.15-7.29L63.15-7.29L63.15-7.29Q62.79-5.37 62.79-3L62.79-3L62.79-3Q62.79-2.22 63.05-1.71L63.05-1.71L63.05-1.71Q63.30-1.20 63.99-1.20L63.99-1.20L63.99-1.20Q64.68-1.20 65.11-1.53L65.11-1.53L65.11-1.53Q65.55-1.86 65.88-2.64L65.88-2.64L65.88-2.64Q66.48-4.02 66.96-6.58L66.96-6.58L66.96-6.58Q67.44-9.15 67.48-10.26L67.48-10.26L67.48-10.26Q67.53-11.37 67.53-12.20L67.53-12.20L67.53-12.20Q67.53-13.02 67.29-13.56L67.29-13.56L67.29-13.56Q67.05-14.10 66.38-14.10L66.38-14.10L66.38-14.10Q65.70-14.10 65.25-13.68L65.25-13.68L65.25-13.68Q64.80-13.26 64.44-12.45ZM81.51-3L81.51-3L81.51-3Q81.51-3.81 81.93-5.85L81.93-5.85L83.52-13.95L81.75-13.95L81.87-14.85L81.87-14.85Q85.47-15.93 88.95-18.57L88.95-18.57L90.39-18.57L89.67-15.30L92.01-15.30L91.74-13.95L89.43-13.95L87.90-5.85L87.90-5.85Q87.51-3.99 87.51-3.36L87.51-3.36L87.51-3.36Q87.51-1.92 88.77-1.62L88.77-1.62L88.77-1.62Q88.47-0.60 87.39 0L87.39 0L87.39 0Q86.31 0.60 84.78 0.60L84.78 0.60L84.78 0.60Q83.25 0.60 82.38-0.36L82.38-0.36L82.38-0.36Q81.51-1.32 81.51-3ZM106.95-3.33L106.95-3.33L106.95-3.33Q106.95-2.01 108.30-1.62L108.30-1.62L108.30-1.62Q107.97-0.51 106.68 0.09L106.68 0.09L106.68 0.09Q105.60 0.60 104.42 0.60L104.42 0.60L104.42 0.60Q103.23 0.60 102.62 0.28L102.62 0.28L102.62 0.28Q102.00-0.03 101.67-0.54L101.67-0.54L101.67-0.54Q101.13-1.32 101.13-2.79L101.13-2.79L101.13-2.79Q101.13-3.66 101.61-6.06L101.61-6.06L102.03-8.34L102.03-8.34Q102.54-10.95 102.54-11.91L102.54-11.91L102.54-11.91Q102.54-13.59 101.61-13.59L101.61-13.59L101.61-13.59Q100.44-13.59 99.69-11.88L99.69-11.88L99.69-11.88Q99.39-11.22 99.18-10.23L99.18-10.23L97.14 0L91.11 0.60L95.34-21L101.37-21.60L101.13-20.40L101.13-20.40Q100.29-15.78 99.57-14.22L99.57-14.22L99.57-14.22Q101.25-15.90 104.34-15.90L104.34-15.90L104.34-15.90Q107.61-15.90 108.21-13.74L108.21-13.74L108.21-13.74Q108.42-13.05 108.42-12.45L108.42-12.45L108.42-12.45Q108.42-11.85 108.38-11.38L108.38-11.38L108.38-11.38Q108.33-10.92 108.18-10.08L108.18-10.08L107.79-7.92L107.10-4.53L107.10-4.53Q106.95-3.84 106.95-3.33ZM122.88-5.07L122.88-5.07L122.88-5.07Q123.63-4.56 123.63-3.44L123.63-3.44L123.63-3.44Q123.63-2.31 123.06-1.59L123.06-1.59L123.06-1.59Q122.49-0.87 121.56-0.39L121.56-0.39L121.56-0.39Q119.64 0.60 117.57 0.60L117.57 0.60L117.57 0.60Q115.50 0.60 114.29 0.15L114.29 0.15L114.29 0.15Q113.07-0.30 112.26-1.14L112.26-1.14L112.26-1.14Q110.67-2.73 110.67-5.64L110.67-5.64L110.67-5.64Q110.67-10.17 113.13-12.93L113.13-12.93L113.13-12.93Q115.77-15.90 120.36-15.90L120.36-15.90L120.36-15.90Q123.21-15.90 124.62-14.70L124.62-14.70L124.62-14.70Q125.67-13.80 125.67-12.33L125.67-12.33L125.67-12.33Q125.67-7.05 116.55-7.05L116.55-7.05L116.55-7.05Q116.43-6.27 116.43-5.61L116.43-5.61L116.43-5.61Q116.43-4.23 117.05-3.71L117.05-3.71L117.05-3.71Q117.66-3.18 118.80-3.18L118.80-3.18L118.80-3.18Q119.94-3.18 121.16-3.71L121.16-3.71L121.16-3.71Q122.37-4.23 122.88-5.07ZM116.76-8.34L116.76-8.34L116.76-8.34Q118.89-8.34 120.12-9.66L120.12-9.66L120.12-9.66Q121.35-10.92 121.35-12.93L121.35-12.93L121.35-12.93Q121.35-13.62 121.10-13.99L121.10-13.99L121.10-13.99Q120.84-14.37 120.33-14.37L120.33-14.37L120.33-14.37Q119.82-14.37 119.39-14.17L119.39-14.17L119.39-14.17Q118.95-13.98 118.50-13.32L118.50-13.32L118.50-13.32Q117.39-11.82 116.76-8.34ZM136.08-8.43L136.08-8.43L136.08-8.43Q137.16-10.35 137.16-12.30L137.16-12.30L137.16-12.30Q137.16-13.59 136.23-13.59L136.23-13.59L136.23-13.59Q135.51-13.59 134.76-12.36L134.76-12.36L134.76-12.36Q133.98-11.13 133.74-9.54L133.74-9.54L132.18 0L125.97 0.60L129.03-15.30L133.98-15.90L133.44-12.87L133.44-12.87Q134.91-15.90 138.21-15.90L138.21-15.90L138.21-15.90Q139.95-15.90 140.90-15L140.90-15L140.90-15Q141.84-14.10 141.84-12.25L141.84-12.25L141.84-12.25Q141.84-10.41 140.63-9.24L140.63-9.24L140.63-9.24Q139.41-8.07 137.34-8.07L137.34-8.07L137.34-8.07Q136.44-8.07 136.08-8.43ZM154.47-5.07L154.47-5.07L154.47-5.07Q155.22-4.56 155.22-3.44L155.22-3.44L155.22-3.44Q155.22-2.31 154.65-1.59L154.65-1.59L154.65-1.59Q154.08-0.87 153.15-0.39L153.15-0.39L153.15-0.39Q151.23 0.60 149.16 0.60L149.16 0.60L149.16 0.60Q147.09 0.60 145.88 0.15L145.88 0.15L145.88 0.15Q144.66-0.30 143.85-1.14L143.85-1.14L143.85-1.14Q142.26-2.73 142.26-5.64L142.26-5.64L142.26-5.64Q142.26-10.17 144.72-12.93L144.72-12.93L144.72-12.93Q147.36-15.90 151.95-15.90L151.95-15.90L151.95-15.90Q154.80-15.90 156.21-14.70L156.21-14.70L156.21-14.70Q157.26-13.80 157.26-12.33L157.26-12.33L157.26-12.33Q157.26-7.05 148.14-7.05L148.14-7.05L148.14-7.05Q148.02-6.27 148.02-5.61L148.02-5.61L148.02-5.61Q148.02-4.23 148.63-3.71L148.63-3.71L148.63-3.71Q149.25-3.18 150.39-3.18L150.39-3.18L150.39-3.18Q151.53-3.18 152.75-3.71L152.75-3.71L152.75-3.71Q153.96-4.23 154.47-5.07ZM148.35-8.34L148.35-8.34L148.35-8.34Q150.48-8.34 151.71-9.66L151.71-9.66L151.71-9.66Q152.94-10.92 152.94-12.93L152.94-12.93L152.94-12.93Q152.94-13.62 152.69-13.99L152.69-13.99L152.69-13.99Q152.43-14.37 151.92-14.37L151.92-14.37L151.92-14.37Q151.41-14.37 150.97-14.17L150.97-14.17L150.97-14.17Q150.54-13.98 150.09-13.32L150.09-13.32L150.09-13.32Q148.98-11.82 148.35-8.34ZM155.64 3.87L155.64 3.87L155.64 3.87Q157.95 1.38 157.95-1.74L157.95-1.74L157.95-1.74Q157.95-2.70 157.62-3.60L157.62-3.60L157.62-3.60Q157.98-3.84 158.70-4.00L158.70-4.00L158.70-4.00Q159.42-4.17 159.96-4.17L159.96-4.17L159.96-4.17Q161.28-4.17 162.06-3.46L162.06-3.46L162.06-3.46Q162.84-2.76 162.84-1.53L162.84-1.53L162.84-1.53Q162.84-0.30 162.36 0.69L162.36 0.69L162.36 0.69Q161.88 1.68 161.07 2.43L161.07 2.43L161.07 2.43Q159.33 4.05 156.93 4.05L156.93 4.05L156.93 4.05Q156.45 4.05 155.64 3.87ZM178.05 0L171.51 0L175.32-19.80L181.92-19.80L178.05 0ZM187.23-13.83L184.05-13.83L184.05-13.83Q185.16-17.67 185.22-21.72L185.22-21.72L186.09-21.84L186.09-21.84Q186.54-21.90 186.87-21.90L186.87-21.90L186.87-21.90Q188.19-21.90 188.91-21.25L188.91-21.25L188.91-21.25Q189.63-20.61 189.63-19.47L189.63-19.47L189.63-19.47Q189.63-18.27 189.09-16.95L189.09-16.95L189.09-16.95Q188.13-14.61 187.23-13.83L187.23-13.83ZM211.11 0.60L211.11 0.60L211.11 0.60Q207.48 0.60 207.48-2.22L207.48-2.22L207.48-2.22Q207.48-3.45 208.01-5.83L208.01-5.83L208.01-5.83Q208.53-8.22 208.71-9.18L208.71-9.18L208.71-9.18Q209.13-11.37 209.13-12.06L209.13-12.06L209.13-12.06Q209.13-13.59 207.99-13.59L207.99-13.59L207.99-13.59Q207.24-13.59 206.52-12.55L206.52-12.55L206.52-12.55Q205.80-11.52 205.47-9.45L205.47-9.45L203.61 0L197.76 0.60L199.38-7.56L199.38-7.56Q199.65-8.91 199.89-10.44L199.89-10.44L199.89-10.44Q200.13-11.97 200.13-12.21L200.13-12.21L200.13-12.21Q200.13-13.59 199.11-13.59L199.11-13.59L199.11-13.59Q198.42-13.59 197.67-12.57L197.67-12.57L197.67-12.57Q196.92-11.55 196.50-9.45L196.50-9.45L194.67 0L188.76 0.60L191.91-15.30L196.80-15.90L196.29-12.87L196.29-12.87Q197.07-14.49 198.51-15.20L198.51-15.20L198.51-15.20Q199.95-15.90 202.20-15.90L202.20-15.90L202.20-15.90Q203.49-15.90 204.33-15.27L204.33-15.27L204.33-15.27Q205.17-14.64 205.44-13.62L205.44-13.62L205.44-13.62Q205.95-14.67 207.26-15.29L207.26-15.29L207.26-15.29Q208.56-15.90 210.17-15.90L210.17-15.90L210.17-15.90Q211.77-15.90 212.57-15.55L212.57-15.55L212.57-15.55Q213.36-15.21 213.84-14.64L213.84-14.64L213.84-14.64Q214.65-13.59 214.65-11.67L214.65-11.67L214.65-11.67Q214.65-9.78 213.84-5.85L213.84-5.85L213.84-5.85Q213.42-3.93 213.42-3.23L213.42-3.23L213.42-3.23Q213.42-2.52 213.83-2.10L213.83-2.10L213.83-2.10Q214.23-1.68 214.83-1.62L214.83-1.62L214.83-1.62Q214.53-0.60 213.50 0L213.50 0L213.50 0Q212.46 0.60 211.11 0.60ZM224.07-18.60L224.07-18.60L224.07-18.60Q224.49-19.44 225.41-19.90L225.41-19.90L225.41-19.90Q226.32-20.37 227.58-20.37L227.58-20.37L227.58-20.37Q229.56-20.37 230.75-18.95L230.75-18.95L230.75-18.95Q231.93-17.52 231.93-14.40L231.93-14.40L231.93-3.69L238.80-19.77L242.34-19.77L243.15-4.59L243.06-3.72L250.20-19.77L254.31-19.77L244.71 0L238.32 0L237.72-9.12L233.76 0L226.53 0L225.63-14.40L225.63-14.40Q225.54-16.02 225.11-17.09L225.11-17.09L225.11-17.09Q224.67-18.15 224.07-18.60ZM253.82-0.90L253.82-0.90L253.82-0.90Q253.11-1.68 252.80-2.91L252.80-2.91L252.80-2.91Q252.48-4.14 252.48-6.15L252.48-6.15L252.48-6.15Q252.48-8.16 253.17-9.99L253.17-9.99L253.17-9.99Q253.86-11.82 255.12-13.14L255.12-13.14L255.12-13.14Q257.70-15.90 261.96-15.90L261.96-15.90L261.96-15.90Q263.49-15.90 264.60-15.39L264.60-15.39L269.73-15.90L267.51-4.20L267.51-4.20Q267.42-3.84 267.42-3.18L267.42-3.18L267.42-3.18Q267.42-2.52 267.83-2.10L267.83-2.10L267.83-2.10Q268.23-1.68 268.83-1.62L268.83-1.62L268.83-1.62Q268.53-0.60 267.44 0L267.44 0L267.44 0Q266.34 0.60 265.11 0.60L265.11 0.60L265.11 0.60Q263.88 0.60 263.06 0.14L263.06 0.14L263.06 0.14Q262.23-0.33 261.99-1.11L261.99-1.11L261.99-1.11Q261.51-0.36 260.49 0.12L260.49 0.12L260.49 0.12Q259.47 0.60 258.11 0.60L258.11 0.60L258.11 0.60Q256.74 0.60 255.63 0.24L255.63 0.24L255.63 0.24Q254.52-0.12 253.82-0.90ZM260.15-13.08L260.15-13.08L260.15-13.08Q259.80-12.54 259.50-11.63L259.50-11.63L259.50-11.63Q259.20-10.71 258.71-8.27L258.71-8.27L258.71-8.27Q258.21-5.82 258.21-4.08L258.21-4.08L258.21-4.08Q258.21-2.34 258.48-1.83L258.48-1.83L258.48-1.83Q258.75-1.32 259.23-1.32L259.23-1.32L259.23-1.32Q260.19-1.32 260.90-2.23L260.90-2.23L260.90-2.23Q261.60-3.15 261.87-4.77L261.87-4.77L263.46-13.56L263.46-13.56Q262.83-14.10 262.10-14.10L262.10-14.10L262.10-14.10Q261.36-14.10 260.93-13.86L260.93-13.86L260.93-13.86Q260.49-13.62 260.15-13.08ZM284.04 0.60L284.04 0.60L284.04 0.60Q280.41 0.60 280.41-2.22L280.41-2.22L280.41-2.22Q280.44-3 280.68-4.32L280.68-4.32L281.22-7.08L281.22-7.08Q282.03-10.98 282.03-11.85L282.03-11.85L282.03-11.85Q282.03-13.59 281.01-13.59L281.01-13.59L281.01-13.59Q279.30-13.59 278.40-9.12L278.40-9.12L276.63 0L270.60 0.60L273.72-15.33L278.64-15.90L278.16-12.96L278.16-12.96Q279.57-15.90 283.89-15.90L283.89-15.90L283.89-15.90Q285.99-15.90 286.88-15.01L286.88-15.01L286.88-15.01Q287.76-14.13 287.76-12.15L287.76-12.15L287.76-12.15Q287.76-10.29 286.80-5.94L286.80-5.94L286.80-5.94Q286.35-3.99 286.35-3.25L286.35-3.25L286.35-3.25Q286.35-2.52 286.76-2.10L286.76-2.10L286.76-2.10Q287.16-1.68 287.76-1.62L287.76-1.62L287.76-1.62Q287.46-0.60 286.43 0L286.43 0L286.43 0Q285.39 0.60 284.04 0.60ZM299.61-15.90L299.61-15.90L299.61-15.90Q300.69-15.90 301.53-15.66L301.53-15.66L301.53-15.66Q301.56-15.78 301.62-16.11L301.62-16.11L301.77-17.04L301.77-17.04Q301.89-17.64 302.07-18.63L302.07-18.63L302.55-21L308.52-21.60L305.19-4.20L305.19-4.20Q305.16-4.02 305.16-3.72L305.16-3.72L305.16-3.24L305.16-3.24Q305.16-2.58 305.49-2.08L305.49-2.08L305.49-2.08Q305.82-1.59 306.36-1.59L306.36-1.59L306.36-1.59Q305.76-0.18 303.93 0.42L303.93 0.42L303.93 0.42Q303.30 0.60 302.42 0.60L302.42 0.60L302.42 0.60Q301.53 0.60 300.72 0.14L300.72 0.14L300.72 0.14Q299.91-0.33 299.67-1.11L299.67-1.11L299.67-1.11Q299.19-0.33 298.23 0.14L298.23 0.14L298.23 0.14Q297.27 0.60 295.88 0.60L295.88 0.60L295.88 0.60Q294.48 0.60 293.33 0.24L293.33 0.24L293.33 0.24Q292.17-0.12 291.45-0.90L291.45-0.90L291.45-0.90Q290.13-2.43 290.13-5.91L290.13-5.91L290.13-5.91Q290.13-10.41 292.77-13.14L292.77-13.14L292.77-13.14Q295.41-15.90 299.61-15.90ZM299.40-14.10L299.40-14.10L299.40-14.10Q298.29-14.10 297.69-12.90L297.69-12.90L297.69-12.90Q297.09-11.70 296.48-8.73L296.48-8.73L296.48-8.73Q295.86-5.76 295.86-3.09L295.86-3.09L295.86-3.09Q295.86-1.26 296.94-1.26L296.94-1.26L296.94-1.26Q297.90-1.26 298.58-2.22L298.58-2.22L298.58-2.22Q299.25-3.18 299.52-4.77L299.52-4.77L301.14-13.56L301.14-13.56Q300.51-14.10 299.40-14.10ZM321.06-5.07L321.06-5.07L321.06-5.07Q321.81-4.56 321.81-3.44L321.81-3.44L321.81-3.44Q321.81-2.31 321.24-1.59L321.24-1.59L321.24-1.59Q320.67-0.87 319.74-0.39L319.74-0.39L319.74-0.39Q317.82 0.60 315.75 0.60L315.75 0.60L315.75 0.60Q313.68 0.60 312.47 0.15L312.47 0.15L312.47 0.15Q311.25-0.30 310.44-1.14L310.44-1.14L310.44-1.14Q308.85-2.73 308.85-5.64L308.85-5.64L308.85-5.64Q308.85-10.17 311.31-12.93L311.31-12.93L311.31-12.93Q313.95-15.90 318.54-15.90L318.54-15.90L318.54-15.90Q321.39-15.90 322.80-14.70L322.80-14.70L322.80-14.70Q323.85-13.80 323.85-12.33L323.85-12.33L323.85-12.33Q323.85-7.05 314.73-7.05L314.73-7.05L314.73-7.05Q314.61-6.27 314.61-5.61L314.61-5.61L314.61-5.61Q314.61-4.23 315.23-3.71L315.23-3.71L315.23-3.71Q315.84-3.18 316.98-3.18L316.98-3.18L316.98-3.18Q318.12-3.18 319.34-3.71L319.34-3.71L319.34-3.71Q320.55-4.23 321.06-5.07ZM314.94-8.34L314.94-8.34L314.94-8.34Q317.07-8.34 318.30-9.66L318.30-9.66L318.30-9.66Q319.53-10.92 319.53-12.93L319.53-12.93L319.53-12.93Q319.53-13.62 319.28-13.99L319.28-13.99L319.28-13.99Q319.02-14.37 318.51-14.37L318.51-14.37L318.51-14.37Q318.00-14.37 317.57-14.17L317.57-14.17L317.57-14.17Q317.13-13.98 316.68-13.32L316.68-13.32L316.68-13.32Q315.57-11.82 314.94-8.34ZM334.26-8.43L334.26-8.43L334.26-8.43Q335.34-10.35 335.34-12.30L335.34-12.30L335.34-12.30Q335.34-13.59 334.41-13.59L334.41-13.59L334.41-13.59Q333.69-13.59 332.94-12.36L332.94-12.36L332.94-12.36Q332.16-11.13 331.92-9.54L331.92-9.54L330.36 0L324.15 0.60L327.21-15.30L332.16-15.90L331.62-12.87L331.62-12.87Q333.09-15.90 336.39-15.90L336.39-15.90L336.39-15.90Q338.13-15.90 339.07-15L339.07-15L339.07-15Q340.02-14.10 340.02-12.25L340.02-12.25L340.02-12.25Q340.02-10.41 338.81-9.24L338.81-9.24L338.81-9.24Q337.59-8.07 335.52-8.07L335.52-8.07L335.52-8.07Q334.62-8.07 334.26-8.43ZM346.28 0.30L346.28 0.30L346.28 0.30Q344.85 0 344.12-0.14L344.12-0.14L344.12-0.14Q343.38-0.27 342.53-0.27L342.53-0.27L342.53-0.27Q341.67-0.27 340.83 0.03L340.83 0.03L340.83 0.03Q340.38-0.24 340.10-0.78L340.10-0.78L340.10-0.78Q339.81-1.32 339.81-2.16L339.81-2.16L339.81-2.16Q339.81-3.93 341.61-5.28L341.61-5.28L349.23-10.77L349.23-10.77Q347.10-11.37 345.17-11.37L345.17-11.37L345.17-11.37Q343.23-11.37 342.54-10.05L342.54-10.05L342.54-10.05Q341.52-11.25 341.52-13.14L341.52-13.14L341.52-13.14Q341.52-14.40 342.44-15.22L342.44-15.22L342.44-15.22Q343.35-16.05 345.27-16.05L345.27-16.05L345.27-16.05Q346.35-16.05 347.32-15.91L347.32-15.91L347.32-15.91Q348.30-15.78 349.17-15.66L349.17-15.66L350.79-15.42L350.79-15.42Q351.57-15.30 352.37-15.30L352.37-15.30L352.37-15.30Q353.16-15.30 353.76-15.63L353.76-15.63L353.76-15.63Q354.54-14.91 354.54-13.92L354.54-13.92L354.54-13.92Q354.54-12.36 352.62-10.74L352.62-10.74L345.03-5.07L345.03-5.07Q347.37-4.38 348.57-4.38L348.57-4.38L348.57-4.38Q351.09-4.38 352.17-5.58L352.17-5.58L352.17-5.58Q353.01-4.62 353.01-2.96L353.01-2.96L353.01-2.96Q353.01-1.29 351.93-0.34L351.93-0.34L351.93-0.34Q350.85 0.60 348.90 0.60L348.90 0.60L348.90 0.60Q347.70 0.60 346.28 0.30ZM367.77-5.07L367.77-5.07L367.77-5.07Q368.52-4.56 368.52-3.44L368.52-3.44L368.52-3.44Q368.52-2.31 367.95-1.59L367.95-1.59L367.95-1.59Q367.38-0.87 366.45-0.39L366.45-0.39L366.45-0.39Q364.53 0.60 362.46 0.60L362.46 0.60L362.46 0.60Q360.39 0.60 359.18 0.15L359.18 0.15L359.18 0.15Q357.96-0.30 357.15-1.14L357.15-1.14L357.15-1.14Q355.56-2.73 355.56-5.64L355.56-5.64L355.56-5.64Q355.56-10.17 358.02-12.93L358.02-12.93L358.02-12.93Q360.66-15.90 365.25-15.90L365.25-15.90L365.25-15.90Q368.10-15.90 369.51-14.70L369.51-14.70L369.51-14.70Q370.56-13.80 370.56-12.33L370.56-12.33L370.56-12.33Q370.56-7.05 361.44-7.05L361.44-7.05L361.44-7.05Q361.32-6.27 361.32-5.61L361.32-5.61L361.32-5.61Q361.32-4.23 361.94-3.71L361.94-3.71L361.94-3.71Q362.55-3.18 363.69-3.18L363.69-3.18L363.69-3.18Q364.83-3.18 366.05-3.71L366.05-3.71L366.05-3.71Q367.26-4.23 367.77-5.07ZM361.65-8.34L361.65-8.34L361.65-8.34Q363.78-8.34 365.01-9.66L365.01-9.66L365.01-9.66Q366.24-10.92 366.24-12.93L366.24-12.93L366.24-12.93Q366.24-13.62 365.99-13.99L365.99-13.99L365.99-13.99Q365.73-14.37 365.22-14.37L365.22-14.37L365.22-14.37Q364.71-14.37 364.28-14.17L364.28-14.17L364.28-14.17Q363.84-13.98 363.39-13.32L363.39-13.32L363.39-13.32Q362.28-11.82 361.65-8.34ZM384.27 0.60L384.27 0.60L384.27 0.60Q380.64 0.60 380.64-2.22L380.64-2.22L380.64-2.22Q380.67-3 380.91-4.32L380.91-4.32L381.45-7.08L381.45-7.08Q382.26-10.98 382.26-11.85L382.26-11.85L382.26-11.85Q382.26-13.59 381.24-13.59L381.24-13.59L381.24-13.59Q379.53-13.59 378.63-9.12L378.63-9.12L376.86 0L370.83 0.60L373.95-15.33L378.87-15.90L378.39-12.96L378.39-12.96Q379.80-15.90 384.12-15.90L384.12-15.90L384.12-15.90Q386.22-15.90 387.11-15.01L387.11-15.01L387.11-15.01Q387.99-14.13 387.99-12.15L387.99-12.15L387.99-12.15Q387.99-10.29 387.03-5.94L387.03-5.94L387.03-5.94Q386.58-3.99 386.58-3.25L386.58-3.25L386.58-3.25Q386.58-2.52 386.99-2.10L386.99-2.10L386.99-2.10Q387.39-1.68 387.99-1.62L387.99-1.62L387.99-1.62Q387.69-0.60 386.65 0L386.65 0L386.65 0Q385.62 0.60 384.27 0.60ZM395.76-1.77L395.76-1.77L395.76-1.77Q395.76-2.91 396.62-3.52L396.62-3.52L396.62-3.52Q397.47-4.14 398.73-4.14L398.73-4.14L398.73-4.14Q399.99-4.14 400.79-3.52L400.79-3.52L400.79-3.52Q401.58-2.91 401.58-1.77L401.58-1.77L401.58-1.77Q401.58-0.63 400.69 0L400.69 0L400.69 0Q399.81 0.63 398.55 0.63L398.55 0.63L398.55 0.63Q397.29 0.63 396.52 0L396.52 0L396.52 0Q395.76-0.63 395.76-1.77ZM397.38-7.41L397.38-7.41L397.38-7.41Q397.38-7.62 397.44-7.92L397.44-7.92L399.78-19.98L399.78-19.98Q400.89-20.40 402.21-20.40L402.21-20.40L402.21-20.40Q403.53-20.40 404.22-19.56L404.22-19.56L404.22-19.56Q404.91-18.72 404.91-17.47L404.91-17.47L404.91-17.47Q404.91-16.23 404.43-14.83L404.43-14.83L404.43-14.83Q403.95-13.44 403.37-12.03L403.37-12.03L403.37-12.03Q402.78-10.62 402.29-9.16L402.29-9.16L402.29-9.16Q401.79-7.71 401.76-6.18L401.76-6.18L401.76-6.18Q401.07-5.40 399.87-5.40L399.87-5.40L399.87-5.40Q398.67-5.40 398.02-5.96L398.02-5.96L398.02-5.96Q397.38-6.51 397.38-7.41Z" fill="url(#editing-glowing-gradient)"></path></g></g><style>text {
  font-size: 64px;
  font-family: Arial Black;
  dominant-baseline: central;
  text-anchor: middle;
}</style></svg>